# xmcd
#
# Track frame offsets:
# 150
# 9552
# 23448
# 34857
# 50469
# 60939
# 70738
# 87153
# 106754
# 123274
# 133495
# 145361
# 160878
#
# Disc length: 2408 seconds
#
#
# Revision: 0
# Processed by: cddbd v1.5.2PL0 Copyright (c) Steve Scherf et al.
# Submitted via: Nero 7, 11, 10, 0 
#
DISCID=a509660d
DTITLE=Brad Paul Frank - Walking To The Moon
DYEAR=2001
DGENRE=Blues
TTITLE0=Walking To The Moon
TTITLE1=The Ville Platte Two Step
TTITLE2=Justice's Two Step
TTITLE3=Double Dutch
TTITLE4=Uptown Swing
TTITLE5=Brad Is Gonna Make You Dance
TTITLE6=Call On Me 
TTITLE7=If You're Looking For A Good Man
TTITLE8=If You Only Could
TTITLE9=Richard's Club
TTITLE10=Girl I Want To Love You
TTITLE11=Brad's Breakdown
TTITLE12=The Balance Of Power
EXTD=
EXTT0=Walking To The Moon
EXTT1=The Ville Platte Two Step
EXTT2=Justice's Two Step
EXTT3=Double Dutch
EXTT4=Uptown Swing
EXTT5=Brad Is Gonna Make You Dance
EXTT6=Call On Me 
EXTT7=If You're Looking For A Good Man
EXTT8=If You Only Could
EXTT9=Richard's Club
EXTT10=Girl I Want To Love You
EXTT11=Brad's Breakdown
EXTT12=The Balance Of Power
PLAYORDER=
